<svg id="svg" xmlns="http://www.w3.org/2000/svg" xmlns:xlink="http://www.w3.org/1999/xlink" width="400" height="400" viewBox="0, 0, 400,400"><g id="svgg"><path id="path0" d="M252.736 60.606 C 246.271 63.977,243.454 70.349,245.307 77.415 C 246.126 80.535,251.114 85.768,298.293 133.008 L 350.375 185.156 182.023 185.175 C 83.762 185.186,12.396 185.489,10.607 185.904 C -3.677 189.217,-3.677 210.783,10.607 214.096 C 12.396 214.510,83.782 214.816,182.031 214.829 L 350.391 214.852 299.792 264.926 C 245.796 318.362,244.930 319.336,244.975 326.552 C 245.042 337.176,256.272 344.172,265.698 339.462 C 269.266 337.678,396.556 210.577,398.490 206.867 C 399.404 205.112,400.000 202.403,400.000 200.000 C 400.000 197.597,399.404 194.888,398.490 193.133 C 396.609 189.525,269.315 62.345,265.859 60.622 C 262.672 59.032,255.770 59.024,252.736 60.606 " stroke="none" fill="#000000" fill-rule="evenodd"></path></g></svg>